<mxfile host="app.diagrams.net" modified="2024-04-01T07:48:42.265Z" agent="Mozilla/5.0 (Windows NT 10.0; Win64; x64) AppleWebKit/537.36 (KHTML, like Gecko) Chrome/123.0.0.0 Safari/537.36" etag="TxvnZsxyeuhS1D0r_xMw" version="24.2.1" type="github" pages="6">
  <diagram name="1.1 회원가입" id="2YBvvXClWsGukQMizWep">
    <mxGraphModel dx="2004" dy="1614" grid="1" gridSize="10" guides="1" tooltips="1" connect="1" arrows="1" fold="1" page="1" pageScale="1" pageWidth="850" pageHeight="1100" math="0" shadow="0">
      <root>
        <mxCell id="0" />
        <mxCell id="1" parent="0" />
        <mxCell id="aM9ryv3xv72pqoxQDRHE-1" value="회원가입 페이지" style="shape=umlLifeline;perimeter=lifelinePerimeter;whiteSpace=wrap;html=1;container=0;dropTarget=0;collapsible=0;recursiveResize=0;outlineConnect=0;portConstraint=eastwest;newEdgeStyle={&quot;edgeStyle&quot;:&quot;elbowEdgeStyle&quot;,&quot;elbow&quot;:&quot;vertical&quot;,&quot;curved&quot;:0,&quot;rounded&quot;:0};" parent="1" vertex="1">
          <mxGeometry x="40" y="-40" width="100" height="300" as="geometry" />
        </mxCell>
        <mxCell id="aM9ryv3xv72pqoxQDRHE-5" value=":worker" style="shape=umlLifeline;perimeter=lifelinePerimeter;whiteSpace=wrap;html=1;container=0;dropTarget=0;collapsible=0;recursiveResize=0;outlineConnect=0;portConstraint=eastwest;newEdgeStyle={&quot;edgeStyle&quot;:&quot;elbowEdgeStyle&quot;,&quot;elbow&quot;:&quot;vertical&quot;,&quot;curved&quot;:0,&quot;rounded&quot;:0};" parent="1" vertex="1">
          <mxGeometry x="200" y="-40" width="100" height="300" as="geometry" />
        </mxCell>
        <mxCell id="ckNDyLoCHBgY_Wbh74-q-17" value="" style="html=1;points=[];perimeter=orthogonalPerimeter;outlineConnect=0;targetShapes=umlLifeline;portConstraint=eastwest;newEdgeStyle={&quot;edgeStyle&quot;:&quot;elbowEdgeStyle&quot;,&quot;elbow&quot;:&quot;vertical&quot;,&quot;curved&quot;:0,&quot;rounded&quot;:0};" vertex="1" parent="aM9ryv3xv72pqoxQDRHE-5">
          <mxGeometry x="45" y="80" width="10" height="60" as="geometry" />
        </mxCell>
        <mxCell id="ckNDyLoCHBgY_Wbh74-q-29" value="" style="html=1;points=[[0,0,0,0,5],[0,1,0,0,-5],[1,0,0,0,5],[1,1,0,0,-5]];perimeter=orthogonalPerimeter;outlineConnect=0;targetShapes=umlLifeline;portConstraint=eastwest;newEdgeStyle={&quot;curved&quot;:0,&quot;rounded&quot;:0};" vertex="1" parent="aM9ryv3xv72pqoxQDRHE-5">
          <mxGeometry x="45" y="210" width="10" height="70" as="geometry" />
        </mxCell>
        <mxCell id="ckNDyLoCHBgY_Wbh74-q-28" value="회원가입 버튼 클릭" style="html=1;verticalAlign=bottom;endArrow=block;curved=0;rounded=0;" edge="1" parent="aM9ryv3xv72pqoxQDRHE-5">
          <mxGeometry width="80" relative="1" as="geometry">
            <mxPoint x="-210" y="200" as="sourcePoint" />
            <mxPoint x="-110.5" y="200" as="targetPoint" />
          </mxGeometry>
        </mxCell>
        <mxCell id="ckNDyLoCHBgY_Wbh74-q-30" value="회원가입 요청" style="html=1;verticalAlign=bottom;endArrow=block;curved=0;rounded=0;entryX=0;entryY=0;entryDx=0;entryDy=5;" edge="1" target="ckNDyLoCHBgY_Wbh74-q-29" parent="aM9ryv3xv72pqoxQDRHE-5">
          <mxGeometry relative="1" as="geometry">
            <mxPoint x="-110.07142857142867" y="215" as="sourcePoint" />
          </mxGeometry>
        </mxCell>
        <mxCell id="ed0Q_3XIy1s2NTtVhkgW-1" value="Actor" style="shape=umlActor;verticalLabelPosition=bottom;verticalAlign=top;html=1;outlineConnect=0;" vertex="1" parent="1">
          <mxGeometry x="-20" y="-90" width="30" height="60" as="geometry" />
        </mxCell>
        <mxCell id="ckNDyLoCHBgY_Wbh74-q-7" value="" style="endArrow=none;dashed=1;html=1;rounded=0;" edge="1" parent="1">
          <mxGeometry width="50" height="50" relative="1" as="geometry">
            <mxPoint x="-10" y="260" as="sourcePoint" />
            <mxPoint x="-10" as="targetPoint" />
          </mxGeometry>
        </mxCell>
        <mxCell id="ckNDyLoCHBgY_Wbh74-q-10" value="Database" style="shape=umlLifeline;perimeter=lifelinePerimeter;whiteSpace=wrap;html=1;container=0;dropTarget=0;collapsible=0;recursiveResize=0;outlineConnect=0;portConstraint=eastwest;newEdgeStyle={&quot;edgeStyle&quot;:&quot;elbowEdgeStyle&quot;,&quot;elbow&quot;:&quot;vertical&quot;,&quot;curved&quot;:0,&quot;rounded&quot;:0};" vertex="1" parent="1">
          <mxGeometry x="370" y="-40" width="100" height="300" as="geometry" />
        </mxCell>
        <mxCell id="ckNDyLoCHBgY_Wbh74-q-23" value="" style="html=1;points=[];perimeter=orthogonalPerimeter;outlineConnect=0;targetShapes=umlLifeline;portConstraint=eastwest;newEdgeStyle={&quot;edgeStyle&quot;:&quot;elbowEdgeStyle&quot;,&quot;elbow&quot;:&quot;vertical&quot;,&quot;curved&quot;:0,&quot;rounded&quot;:0};" vertex="1" parent="ckNDyLoCHBgY_Wbh74-q-10">
          <mxGeometry x="45" y="90" width="10" height="30" as="geometry" />
        </mxCell>
        <mxCell id="ckNDyLoCHBgY_Wbh74-q-33" value="" style="html=1;points=[[0,0,0,0,5],[0,1,0,0,-5],[1,0,0,0,5],[1,1,0,0,-5]];perimeter=orthogonalPerimeter;outlineConnect=0;targetShapes=umlLifeline;portConstraint=eastwest;newEdgeStyle={&quot;curved&quot;:0,&quot;rounded&quot;:0};" vertex="1" parent="ckNDyLoCHBgY_Wbh74-q-10">
          <mxGeometry x="45" y="230" width="10" height="40" as="geometry" />
        </mxCell>
        <mxCell id="ckNDyLoCHBgY_Wbh74-q-15" value="개인정보 입력" style="html=1;verticalAlign=bottom;endArrow=block;curved=0;rounded=0;" edge="1" parent="1">
          <mxGeometry width="80" relative="1" as="geometry">
            <mxPoint x="-10" y="40" as="sourcePoint" />
            <mxPoint x="89.5" y="40" as="targetPoint" />
          </mxGeometry>
        </mxCell>
        <mxCell id="ckNDyLoCHBgY_Wbh74-q-20" value="계정, 계좌 중복 확인" style="html=1;verticalAlign=bottom;endArrow=block;curved=0;rounded=0;" edge="1" parent="1" target="ckNDyLoCHBgY_Wbh74-q-17">
          <mxGeometry width="80" relative="1" as="geometry">
            <mxPoint x="90" y="50" as="sourcePoint" />
            <mxPoint x="245" y="30" as="targetPoint" />
          </mxGeometry>
        </mxCell>
        <mxCell id="ckNDyLoCHBgY_Wbh74-q-22" value="계정, 계좌 조회" style="html=1;verticalAlign=bottom;endArrow=block;curved=0;rounded=0;" edge="1" parent="1">
          <mxGeometry width="80" relative="1" as="geometry">
            <mxPoint x="255" y="50" as="sourcePoint" />
            <mxPoint x="415" y="50" as="targetPoint" />
          </mxGeometry>
        </mxCell>
        <mxCell id="ckNDyLoCHBgY_Wbh74-q-24" value="존재 여부 반환" style="html=1;verticalAlign=bottom;endArrow=open;dashed=1;endSize=8;curved=0;rounded=0;" edge="1" parent="1">
          <mxGeometry relative="1" as="geometry">
            <mxPoint x="415" y="80" as="sourcePoint" />
            <mxPoint x="255" y="80" as="targetPoint" />
          </mxGeometry>
        </mxCell>
        <mxCell id="ckNDyLoCHBgY_Wbh74-q-25" value="중복 여부 반환" style="html=1;verticalAlign=bottom;endArrow=open;dashed=1;endSize=8;curved=0;rounded=0;" edge="1" parent="1">
          <mxGeometry relative="1" as="geometry">
            <mxPoint x="245" y="100" as="sourcePoint" />
            <mxPoint x="90" y="100" as="targetPoint" />
          </mxGeometry>
        </mxCell>
        <mxCell id="ckNDyLoCHBgY_Wbh74-q-27" value="loop" style="shape=umlFrame;whiteSpace=wrap;html=1;pointerEvents=0;" vertex="1" parent="1">
          <mxGeometry x="-80" y="10" width="550" height="100" as="geometry" />
        </mxCell>
        <mxCell id="ckNDyLoCHBgY_Wbh74-q-32" value="return" style="html=1;verticalAlign=bottom;endArrow=open;dashed=1;endSize=8;curved=0;rounded=0;" edge="1" parent="1">
          <mxGeometry relative="1" as="geometry">
            <mxPoint x="90" y="120" as="sourcePoint" />
            <mxPoint x="-10" y="120" as="targetPoint" />
          </mxGeometry>
        </mxCell>
        <mxCell id="ckNDyLoCHBgY_Wbh74-q-35" value="return" style="html=1;verticalAlign=bottom;endArrow=open;dashed=1;endSize=8;curved=0;rounded=0;exitX=0;exitY=1;exitDx=0;exitDy=-5;" edge="1" source="ckNDyLoCHBgY_Wbh74-q-33" parent="1" target="ckNDyLoCHBgY_Wbh74-q-29">
          <mxGeometry relative="1" as="geometry">
            <mxPoint x="345" y="245" as="targetPoint" />
          </mxGeometry>
        </mxCell>
        <mxCell id="ckNDyLoCHBgY_Wbh74-q-34" value="DB 저장" style="html=1;verticalAlign=bottom;endArrow=block;curved=0;rounded=0;entryX=0;entryY=0;entryDx=0;entryDy=5;exitX=1;exitY=0;exitDx=0;exitDy=5;exitPerimeter=0;" edge="1" parent="1">
          <mxGeometry relative="1" as="geometry">
            <mxPoint x="255" y="190" as="sourcePoint" />
            <mxPoint x="415" y="190" as="targetPoint" />
          </mxGeometry>
        </mxCell>
        <mxCell id="ckNDyLoCHBgY_Wbh74-q-31" value="return" style="html=1;verticalAlign=bottom;endArrow=open;dashed=1;endSize=8;curved=0;rounded=0;exitX=0;exitY=1;exitDx=0;exitDy=-5;" edge="1" source="ckNDyLoCHBgY_Wbh74-q-29" parent="1" target="aM9ryv3xv72pqoxQDRHE-1">
          <mxGeometry relative="1" as="geometry">
            <mxPoint x="89.92857142857133" y="245" as="targetPoint" />
          </mxGeometry>
        </mxCell>
        <mxCell id="ckNDyLoCHBgY_Wbh74-q-36" value="return" style="html=1;verticalAlign=bottom;endArrow=open;dashed=1;endSize=8;curved=0;rounded=0;" edge="1" parent="1">
          <mxGeometry relative="1" as="geometry">
            <mxPoint x="-10" y="250" as="targetPoint" />
            <mxPoint x="90" y="250" as="sourcePoint" />
          </mxGeometry>
        </mxCell>
      </root>
    </mxGraphModel>
  </diagram>
  <diagram id="SQ6tt-wiKdbiycdkhMV6" name="1.2 회원정보 수정">
    <mxGraphModel dx="1784" dy="1595" grid="1" gridSize="10" guides="1" tooltips="1" connect="1" arrows="1" fold="1" page="1" pageScale="1" pageWidth="827" pageHeight="1169" math="0" shadow="0">
      <root>
        <mxCell id="0" />
        <mxCell id="1" parent="0" />
        <mxCell id="_BMkVHDuaXssImeI2vgC-1" value="마이페이지" style="shape=umlLifeline;perimeter=lifelinePerimeter;whiteSpace=wrap;html=1;container=0;dropTarget=0;collapsible=0;recursiveResize=0;outlineConnect=0;portConstraint=eastwest;newEdgeStyle={&quot;edgeStyle&quot;:&quot;elbowEdgeStyle&quot;,&quot;elbow&quot;:&quot;vertical&quot;,&quot;curved&quot;:0,&quot;rounded&quot;:0};" vertex="1" parent="1">
          <mxGeometry x="40" y="-40" width="100" height="300" as="geometry" />
        </mxCell>
        <mxCell id="_BMkVHDuaXssImeI2vgC-2" value=":worker" style="shape=umlLifeline;perimeter=lifelinePerimeter;whiteSpace=wrap;html=1;container=0;dropTarget=0;collapsible=0;recursiveResize=0;outlineConnect=0;portConstraint=eastwest;newEdgeStyle={&quot;edgeStyle&quot;:&quot;elbowEdgeStyle&quot;,&quot;elbow&quot;:&quot;vertical&quot;,&quot;curved&quot;:0,&quot;rounded&quot;:0};" vertex="1" parent="1">
          <mxGeometry x="200" y="-40" width="100" height="310" as="geometry" />
        </mxCell>
        <mxCell id="_BMkVHDuaXssImeI2vgC-3" value="" style="html=1;points=[];perimeter=orthogonalPerimeter;outlineConnect=0;targetShapes=umlLifeline;portConstraint=eastwest;newEdgeStyle={&quot;edgeStyle&quot;:&quot;elbowEdgeStyle&quot;,&quot;elbow&quot;:&quot;vertical&quot;,&quot;curved&quot;:0,&quot;rounded&quot;:0};" vertex="1" parent="_BMkVHDuaXssImeI2vgC-2">
          <mxGeometry x="45" y="90" width="10" height="140" as="geometry" />
        </mxCell>
        <mxCell id="_BMkVHDuaXssImeI2vgC-4" value="Actor" style="shape=umlActor;verticalLabelPosition=bottom;verticalAlign=top;html=1;outlineConnect=0;" vertex="1" parent="1">
          <mxGeometry x="-20" y="-90" width="30" height="60" as="geometry" />
        </mxCell>
        <mxCell id="_BMkVHDuaXssImeI2vgC-5" value="" style="endArrow=none;dashed=1;html=1;rounded=0;" edge="1" parent="1">
          <mxGeometry width="50" height="50" relative="1" as="geometry">
            <mxPoint x="-10" y="260" as="sourcePoint" />
            <mxPoint x="-10" as="targetPoint" />
          </mxGeometry>
        </mxCell>
        <mxCell id="_BMkVHDuaXssImeI2vgC-6" value="Database" style="shape=umlLifeline;perimeter=lifelinePerimeter;whiteSpace=wrap;html=1;container=0;dropTarget=0;collapsible=0;recursiveResize=0;outlineConnect=0;portConstraint=eastwest;newEdgeStyle={&quot;edgeStyle&quot;:&quot;elbowEdgeStyle&quot;,&quot;elbow&quot;:&quot;vertical&quot;,&quot;curved&quot;:0,&quot;rounded&quot;:0};" vertex="1" parent="1">
          <mxGeometry x="370" y="-40" width="100" height="300" as="geometry" />
        </mxCell>
        <mxCell id="_BMkVHDuaXssImeI2vgC-7" value="" style="html=1;points=[];perimeter=orthogonalPerimeter;outlineConnect=0;targetShapes=umlLifeline;portConstraint=eastwest;newEdgeStyle={&quot;edgeStyle&quot;:&quot;elbowEdgeStyle&quot;,&quot;elbow&quot;:&quot;vertical&quot;,&quot;curved&quot;:0,&quot;rounded&quot;:0};" vertex="1" parent="_BMkVHDuaXssImeI2vgC-6">
          <mxGeometry x="45" y="100" width="10" height="30" as="geometry" />
        </mxCell>
        <mxCell id="_BMkVHDuaXssImeI2vgC-10" value="pw 일치 여부 및&lt;br&gt;중복 여부 확인" style="html=1;verticalAlign=bottom;endArrow=block;curved=0;rounded=0;" edge="1" parent="_BMkVHDuaXssImeI2vgC-6">
          <mxGeometry width="80" relative="1" as="geometry">
            <mxPoint x="-115" y="100" as="sourcePoint" />
            <mxPoint x="45" y="100" as="targetPoint" />
          </mxGeometry>
        </mxCell>
        <mxCell id="_BMkVHDuaXssImeI2vgC-11" value="일치 여부 반환" style="html=1;verticalAlign=bottom;endArrow=open;dashed=1;endSize=8;curved=0;rounded=0;" edge="1" parent="_BMkVHDuaXssImeI2vgC-6">
          <mxGeometry relative="1" as="geometry">
            <mxPoint x="45" y="130" as="sourcePoint" />
            <mxPoint x="-115" y="130" as="targetPoint" />
          </mxGeometry>
        </mxCell>
        <mxCell id="_BMkVHDuaXssImeI2vgC-18" value="" style="html=1;points=[[0,0,0,0,5],[0,1,0,0,-5],[1,0,0,0,5],[1,1,0,0,-5]];perimeter=orthogonalPerimeter;outlineConnect=0;targetShapes=umlLifeline;portConstraint=eastwest;newEdgeStyle={&quot;curved&quot;:0,&quot;rounded&quot;:0};" vertex="1" parent="_BMkVHDuaXssImeI2vgC-6">
          <mxGeometry x="45" y="180" width="10" height="40" as="geometry" />
        </mxCell>
        <mxCell id="_BMkVHDuaXssImeI2vgC-8" value="변경 정보 및 &lt;br&gt;기존 pw 입력" style="html=1;verticalAlign=bottom;endArrow=block;curved=0;rounded=0;" edge="1" parent="1">
          <mxGeometry x="-0.0007" width="80" relative="1" as="geometry">
            <mxPoint x="-10" y="40" as="sourcePoint" />
            <mxPoint x="89.5" y="40" as="targetPoint" />
            <mxPoint as="offset" />
          </mxGeometry>
        </mxCell>
        <mxCell id="_BMkVHDuaXssImeI2vgC-9" value="입력한 정보 확인" style="html=1;verticalAlign=bottom;endArrow=block;curved=0;rounded=0;" edge="1" parent="1">
          <mxGeometry width="80" relative="1" as="geometry">
            <mxPoint x="90" y="50" as="sourcePoint" />
            <mxPoint x="245" y="50" as="targetPoint" />
          </mxGeometry>
        </mxCell>
        <mxCell id="_BMkVHDuaXssImeI2vgC-13" value="return" style="html=1;verticalAlign=bottom;endArrow=open;dashed=1;endSize=8;curved=0;rounded=0;" edge="1" parent="1">
          <mxGeometry relative="1" as="geometry">
            <mxPoint x="90" y="210" as="sourcePoint" />
            <mxPoint x="-10" y="210" as="targetPoint" />
          </mxGeometry>
        </mxCell>
        <mxCell id="_BMkVHDuaXssImeI2vgC-15" value="loop" style="shape=umlFrame;whiteSpace=wrap;html=1;pointerEvents=0;" vertex="1" parent="1">
          <mxGeometry x="-90" y="10" width="570" height="100" as="geometry" />
        </mxCell>
        <mxCell id="_BMkVHDuaXssImeI2vgC-16" value="return" style="html=1;verticalAlign=bottom;endArrow=open;dashed=1;endSize=8;curved=0;rounded=0;" edge="1" parent="1">
          <mxGeometry relative="1" as="geometry">
            <mxPoint x="245" y="190" as="sourcePoint" />
            <mxPoint x="89.92857142857133" y="190" as="targetPoint" />
          </mxGeometry>
        </mxCell>
        <mxCell id="_BMkVHDuaXssImeI2vgC-17" value="변경사항 적용" style="html=1;verticalAlign=bottom;endArrow=block;curved=0;rounded=0;" edge="1" parent="1" target="_BMkVHDuaXssImeI2vgC-3">
          <mxGeometry width="80" relative="1" as="geometry">
            <mxPoint x="90" y="130" as="sourcePoint" />
            <mxPoint x="250" y="130" as="targetPoint" />
          </mxGeometry>
        </mxCell>
        <mxCell id="_BMkVHDuaXssImeI2vgC-19" value="번경사항 저장" style="html=1;verticalAlign=bottom;endArrow=block;curved=0;rounded=0;entryX=0;entryY=0;entryDx=0;entryDy=5;" edge="1" target="_BMkVHDuaXssImeI2vgC-18" parent="1" source="_BMkVHDuaXssImeI2vgC-3">
          <mxGeometry relative="1" as="geometry">
            <mxPoint x="355" y="135" as="sourcePoint" />
            <mxPoint as="offset" />
          </mxGeometry>
        </mxCell>
        <mxCell id="_BMkVHDuaXssImeI2vgC-20" value="return" style="html=1;verticalAlign=bottom;endArrow=open;dashed=1;endSize=8;curved=0;rounded=0;exitX=0;exitY=1;exitDx=0;exitDy=-5;" edge="1" source="_BMkVHDuaXssImeI2vgC-18" parent="1" target="_BMkVHDuaXssImeI2vgC-3">
          <mxGeometry relative="1" as="geometry">
            <mxPoint x="355" y="205" as="targetPoint" />
          </mxGeometry>
        </mxCell>
      </root>
    </mxGraphModel>
  </diagram>
  <diagram id="-i3My-iQJWL3KqFNr2Cl" name="1.3 자격증 등록">
    <mxGraphModel dx="1981" dy="1683" grid="1" gridSize="10" guides="1" tooltips="1" connect="1" arrows="1" fold="1" page="1" pageScale="1" pageWidth="827" pageHeight="1169" math="0" shadow="0">
      <root>
        <mxCell id="0" />
        <mxCell id="1" parent="0" />
        <mxCell id="9bwsySosoDlY9AkVrPqH-1" value="마이페이지" style="shape=umlLifeline;perimeter=lifelinePerimeter;whiteSpace=wrap;html=1;container=0;dropTarget=0;collapsible=0;recursiveResize=0;outlineConnect=0;portConstraint=eastwest;newEdgeStyle={&quot;edgeStyle&quot;:&quot;elbowEdgeStyle&quot;,&quot;elbow&quot;:&quot;vertical&quot;,&quot;curved&quot;:0,&quot;rounded&quot;:0};" vertex="1" parent="1">
          <mxGeometry x="40" y="-40" width="100" height="390" as="geometry" />
        </mxCell>
        <mxCell id="9bwsySosoDlY9AkVrPqH-2" value=":certification" style="shape=umlLifeline;perimeter=lifelinePerimeter;whiteSpace=wrap;html=1;container=0;dropTarget=0;collapsible=0;recursiveResize=0;outlineConnect=0;portConstraint=eastwest;newEdgeStyle={&quot;edgeStyle&quot;:&quot;elbowEdgeStyle&quot;,&quot;elbow&quot;:&quot;vertical&quot;,&quot;curved&quot;:0,&quot;rounded&quot;:0};" vertex="1" parent="1">
          <mxGeometry x="210" y="-40" width="100" height="390" as="geometry" />
        </mxCell>
        <mxCell id="9bwsySosoDlY9AkVrPqH-3" value="" style="html=1;points=[[0,0,0,0,5],[0,1,0,0,-5],[1,0,0,0,5],[1,1,0,0,-5]];perimeter=orthogonalPerimeter;outlineConnect=0;targetShapes=umlLifeline;portConstraint=eastwest;newEdgeStyle={&quot;curved&quot;:0,&quot;rounded&quot;:0};" vertex="1" parent="9bwsySosoDlY9AkVrPqH-2">
          <mxGeometry x="45" y="150" width="10" height="60" as="geometry" />
        </mxCell>
        <mxCell id="9bwsySosoDlY9AkVrPqH-27" value="" style="html=1;points=[[0,0,0,0,5],[0,1,0,0,-5],[1,0,0,0,5],[1,1,0,0,-5]];perimeter=orthogonalPerimeter;outlineConnect=0;targetShapes=umlLifeline;portConstraint=eastwest;newEdgeStyle={&quot;curved&quot;:0,&quot;rounded&quot;:0};" vertex="1" parent="9bwsySosoDlY9AkVrPqH-2">
          <mxGeometry x="45" y="270" width="10" height="80" as="geometry" />
        </mxCell>
        <mxCell id="9bwsySosoDlY9AkVrPqH-4" value="Actor" style="shape=umlActor;verticalLabelPosition=bottom;verticalAlign=top;html=1;outlineConnect=0;" vertex="1" parent="1">
          <mxGeometry x="-50" y="-90" width="30" height="60" as="geometry" />
        </mxCell>
        <mxCell id="9bwsySosoDlY9AkVrPqH-5" value="" style="endArrow=none;dashed=1;html=1;rounded=0;" edge="1" parent="1">
          <mxGeometry width="50" height="50" relative="1" as="geometry">
            <mxPoint x="-40" y="350" as="sourcePoint" />
            <mxPoint x="-40" as="targetPoint" />
          </mxGeometry>
        </mxCell>
        <mxCell id="9bwsySosoDlY9AkVrPqH-6" value="Database" style="shape=umlLifeline;whiteSpace=wrap;html=1;container=0;dropTarget=0;collapsible=0;recursiveResize=0;outlineConnect=0;portConstraint=eastwest;newEdgeStyle={&quot;curved&quot;:0,&quot;rounded&quot;:0};points=[[0,0,0,0,5],[0,1,0,0,-5],[1,0,0,0,5],[1,1,0,0,-5]];perimeter=rectanglePerimeter;targetShapes=umlLifeline;participant=label;" vertex="1" parent="1">
          <mxGeometry x="490" y="-40" width="100" height="350" as="geometry" />
        </mxCell>
        <mxCell id="9bwsySosoDlY9AkVrPqH-21" value="" style="html=1;points=[[0,0,0,0,5],[0,1,0,0,-5],[1,0,0,0,5],[1,1,0,0,-5]];perimeter=orthogonalPerimeter;outlineConnect=0;targetShapes=umlLifeline;portConstraint=eastwest;newEdgeStyle={&quot;curved&quot;:0,&quot;rounded&quot;:0};" vertex="1" parent="9bwsySosoDlY9AkVrPqH-6">
          <mxGeometry x="45" y="160" width="10" height="40" as="geometry" />
        </mxCell>
        <mxCell id="9bwsySosoDlY9AkVrPqH-33" value="" style="html=1;points=[[0,0,0,0,5],[0,1,0,0,-5],[1,0,0,0,5],[1,1,0,0,-5]];perimeter=orthogonalPerimeter;outlineConnect=0;targetShapes=umlLifeline;portConstraint=eastwest;newEdgeStyle={&quot;curved&quot;:0,&quot;rounded&quot;:0};" vertex="1" parent="9bwsySosoDlY9AkVrPqH-6">
          <mxGeometry x="45" y="300" width="10" height="30" as="geometry" />
        </mxCell>
        <mxCell id="9bwsySosoDlY9AkVrPqH-8" value="&#39;나의 자격증&#39; 클릭" style="html=1;verticalAlign=bottom;endArrow=block;curved=0;rounded=0;" edge="1" parent="1">
          <mxGeometry width="80" relative="1" as="geometry">
            <mxPoint x="-40" y="30" as="sourcePoint" />
            <mxPoint x="89.49999999999977" y="30" as="targetPoint" />
          </mxGeometry>
        </mxCell>
        <mxCell id="9bwsySosoDlY9AkVrPqH-9" value="자격증 정보 이동" style="html=1;verticalAlign=bottom;endArrow=block;curved=0;rounded=0;" edge="1" parent="1">
          <mxGeometry width="80" relative="1" as="geometry">
            <mxPoint x="90" y="60" as="sourcePoint" />
            <mxPoint x="-40" y="60" as="targetPoint" />
          </mxGeometry>
        </mxCell>
        <mxCell id="9bwsySosoDlY9AkVrPqH-10" value="자격증 조회" style="html=1;verticalAlign=bottom;endArrow=block;curved=0;rounded=0;" edge="1" parent="1" target="9bwsySosoDlY9AkVrPqH-1">
          <mxGeometry width="80" relative="1" as="geometry">
            <mxPoint x="-40" y="100" as="sourcePoint" />
            <mxPoint x="40" y="100" as="targetPoint" />
          </mxGeometry>
        </mxCell>
        <mxCell id="9bwsySosoDlY9AkVrPqH-11" value="자격증 목록 조회 요청" style="html=1;verticalAlign=bottom;endArrow=block;curved=0;rounded=0;entryX=0;entryY=0;entryDx=0;entryDy=5;" edge="1" parent="1" source="9bwsySosoDlY9AkVrPqH-1" target="9bwsySosoDlY9AkVrPqH-3">
          <mxGeometry relative="1" as="geometry">
            <mxPoint x="175" y="115" as="sourcePoint" />
          </mxGeometry>
        </mxCell>
        <mxCell id="9bwsySosoDlY9AkVrPqH-12" value="자격증 목록 반환" style="html=1;verticalAlign=bottom;endArrow=open;dashed=1;endSize=8;curved=0;rounded=0;exitX=0;exitY=1;exitDx=0;exitDy=-5;" edge="1" parent="1" source="9bwsySosoDlY9AkVrPqH-3" target="9bwsySosoDlY9AkVrPqH-1">
          <mxGeometry relative="1" as="geometry">
            <mxPoint x="175" y="185" as="targetPoint" />
          </mxGeometry>
        </mxCell>
        <mxCell id="9bwsySosoDlY9AkVrPqH-17" value=":worker" style="shape=umlLifeline;perimeter=lifelinePerimeter;whiteSpace=wrap;html=1;container=0;dropTarget=0;collapsible=0;recursiveResize=0;outlineConnect=0;portConstraint=eastwest;newEdgeStyle={&quot;edgeStyle&quot;:&quot;elbowEdgeStyle&quot;,&quot;elbow&quot;:&quot;vertical&quot;,&quot;curved&quot;:0,&quot;rounded&quot;:0};" vertex="1" parent="1">
          <mxGeometry x="370" y="190" width="100" height="130" as="geometry" />
        </mxCell>
        <mxCell id="9bwsySosoDlY9AkVrPqH-30" value="" style="html=1;points=[[0,0,0,0,5],[0,1,0,0,-5],[1,0,0,0,5],[1,1,0,0,-5]];perimeter=orthogonalPerimeter;outlineConnect=0;targetShapes=umlLifeline;portConstraint=eastwest;newEdgeStyle={&quot;curved&quot;:0,&quot;rounded&quot;:0};" vertex="1" parent="9bwsySosoDlY9AkVrPqH-17">
          <mxGeometry x="45" y="60" width="10" height="50" as="geometry" />
        </mxCell>
        <mxCell id="9bwsySosoDlY9AkVrPqH-22" value="자격증 목록 조회" style="html=1;verticalAlign=bottom;endArrow=block;curved=0;rounded=0;entryX=0;entryY=0;entryDx=0;entryDy=5;" edge="1" target="9bwsySosoDlY9AkVrPqH-21" parent="1" source="9bwsySosoDlY9AkVrPqH-3">
          <mxGeometry relative="1" as="geometry">
            <mxPoint x="410" y="80" as="sourcePoint" />
          </mxGeometry>
        </mxCell>
        <mxCell id="9bwsySosoDlY9AkVrPqH-23" value="return" style="html=1;verticalAlign=bottom;endArrow=open;dashed=1;endSize=8;curved=0;rounded=0;exitX=0;exitY=1;exitDx=0;exitDy=-5;" edge="1" source="9bwsySosoDlY9AkVrPqH-21" parent="1" target="9bwsySosoDlY9AkVrPqH-3">
          <mxGeometry relative="1" as="geometry">
            <mxPoint x="410" y="150" as="targetPoint" />
          </mxGeometry>
        </mxCell>
        <mxCell id="9bwsySosoDlY9AkVrPqH-24" value="show" style="html=1;verticalAlign=bottom;endArrow=open;dashed=1;endSize=8;curved=0;rounded=0;" edge="1" parent="1">
          <mxGeometry relative="1" as="geometry">
            <mxPoint x="90" y="180" as="sourcePoint" />
            <mxPoint x="-40" y="180" as="targetPoint" />
          </mxGeometry>
        </mxCell>
        <mxCell id="9bwsySosoDlY9AkVrPqH-26" value="자격증 선택" style="html=1;verticalAlign=bottom;endArrow=block;curved=0;rounded=0;" edge="1" parent="1">
          <mxGeometry width="80" relative="1" as="geometry">
            <mxPoint x="-40" y="220" as="sourcePoint" />
            <mxPoint x="90" y="220" as="targetPoint" />
          </mxGeometry>
        </mxCell>
        <mxCell id="9bwsySosoDlY9AkVrPqH-29" value="return" style="html=1;verticalAlign=bottom;endArrow=open;dashed=1;endSize=8;curved=0;rounded=0;exitX=0;exitY=1;exitDx=0;exitDy=-5;" edge="1" source="9bwsySosoDlY9AkVrPqH-27" parent="1" target="9bwsySosoDlY9AkVrPqH-1">
          <mxGeometry relative="1" as="geometry">
            <mxPoint x="175" y="265" as="targetPoint" />
          </mxGeometry>
        </mxCell>
        <mxCell id="9bwsySosoDlY9AkVrPqH-28" value="자격증 조회" style="html=1;verticalAlign=bottom;endArrow=block;curved=0;rounded=0;entryX=0;entryY=0;entryDx=0;entryDy=5;" edge="1" target="9bwsySosoDlY9AkVrPqH-27" parent="1" source="9bwsySosoDlY9AkVrPqH-1">
          <mxGeometry relative="1" as="geometry">
            <mxPoint x="175" y="195" as="sourcePoint" />
          </mxGeometry>
        </mxCell>
        <mxCell id="9bwsySosoDlY9AkVrPqH-31" value="해당 회원에 자격증 추가" style="html=1;verticalAlign=bottom;endArrow=block;curved=0;rounded=0;entryX=0;entryY=0;entryDx=0;entryDy=5;" edge="1" target="9bwsySosoDlY9AkVrPqH-30" parent="1" source="9bwsySosoDlY9AkVrPqH-27">
          <mxGeometry relative="1" as="geometry">
            <mxPoint x="315" y="255" as="sourcePoint" />
          </mxGeometry>
        </mxCell>
        <mxCell id="9bwsySosoDlY9AkVrPqH-32" value="return" style="html=1;verticalAlign=bottom;endArrow=open;dashed=1;endSize=8;curved=0;rounded=0;exitX=0;exitY=1;exitDx=0;exitDy=-5;" edge="1" source="9bwsySosoDlY9AkVrPqH-30" parent="1" target="9bwsySosoDlY9AkVrPqH-27">
          <mxGeometry relative="1" as="geometry">
            <mxPoint x="320" y="290" as="targetPoint" />
          </mxGeometry>
        </mxCell>
        <mxCell id="9bwsySosoDlY9AkVrPqH-34" value="회원에 자격증&lt;br&gt;정보 저장" style="html=1;verticalAlign=bottom;endArrow=block;curved=0;rounded=0;entryX=0;entryY=0;entryDx=0;entryDy=5;" edge="1" target="9bwsySosoDlY9AkVrPqH-33" parent="1" source="9bwsySosoDlY9AkVrPqH-30">
          <mxGeometry relative="1" as="geometry">
            <mxPoint x="465" y="265" as="sourcePoint" />
          </mxGeometry>
        </mxCell>
        <mxCell id="9bwsySosoDlY9AkVrPqH-35" value="return" style="html=1;verticalAlign=bottom;endArrow=open;dashed=1;endSize=8;curved=0;rounded=0;exitX=0;exitY=1;exitDx=0;exitDy=-5;" edge="1" source="9bwsySosoDlY9AkVrPqH-33" parent="1" target="9bwsySosoDlY9AkVrPqH-30">
          <mxGeometry relative="1" as="geometry">
            <mxPoint x="465" y="335" as="targetPoint" />
          </mxGeometry>
        </mxCell>
        <mxCell id="9bwsySosoDlY9AkVrPqH-37" value="return" style="html=1;verticalAlign=bottom;endArrow=open;dashed=1;endSize=8;curved=0;rounded=0;" edge="1" parent="1">
          <mxGeometry x="-0.0027" relative="1" as="geometry">
            <mxPoint x="90" y="330" as="sourcePoint" />
            <mxPoint x="-40" y="330" as="targetPoint" />
            <mxPoint as="offset" />
          </mxGeometry>
        </mxCell>
      </root>
    </mxGraphModel>
  </diagram>
  <diagram id="GWzl4jGDgIThn4sj-1cx" name="1.4 등록한 자격증 삭제">
    <mxGraphModel dx="1784" dy="1595" grid="1" gridSize="10" guides="1" tooltips="1" connect="1" arrows="1" fold="1" page="1" pageScale="1" pageWidth="827" pageHeight="1169" math="0" shadow="0">
      <root>
        <mxCell id="0" />
        <mxCell id="1" parent="0" />
        <mxCell id="kvHhIxwmBRfnykGE0e7Z-1" value="마이페이지" style="shape=umlLifeline;perimeter=lifelinePerimeter;whiteSpace=wrap;html=1;container=0;dropTarget=0;collapsible=0;recursiveResize=0;outlineConnect=0;portConstraint=eastwest;newEdgeStyle={&quot;edgeStyle&quot;:&quot;elbowEdgeStyle&quot;,&quot;elbow&quot;:&quot;vertical&quot;,&quot;curved&quot;:0,&quot;rounded&quot;:0};" vertex="1" parent="1">
          <mxGeometry x="40" y="-40" width="100" height="560" as="geometry" />
        </mxCell>
        <mxCell id="kvHhIxwmBRfnykGE0e7Z-2" value=":certification" style="shape=umlLifeline;perimeter=lifelinePerimeter;whiteSpace=wrap;html=1;container=0;dropTarget=0;collapsible=0;recursiveResize=0;outlineConnect=0;portConstraint=eastwest;newEdgeStyle={&quot;edgeStyle&quot;:&quot;elbowEdgeStyle&quot;,&quot;elbow&quot;:&quot;vertical&quot;,&quot;curved&quot;:0,&quot;rounded&quot;:0};" vertex="1" parent="1">
          <mxGeometry x="350" y="-40" width="100" height="560" as="geometry" />
        </mxCell>
        <mxCell id="kvHhIxwmBRfnykGE0e7Z-35" value="" style="html=1;points=[[0,0,0,0,5],[0,1,0,0,-5],[1,0,0,0,5],[1,1,0,0,-5]];perimeter=orthogonalPerimeter;outlineConnect=0;targetShapes=umlLifeline;portConstraint=eastwest;newEdgeStyle={&quot;curved&quot;:0,&quot;rounded&quot;:0};" vertex="1" parent="kvHhIxwmBRfnykGE0e7Z-2">
          <mxGeometry x="45" y="171.25" width="10" height="58.75" as="geometry" />
        </mxCell>
        <mxCell id="kvHhIxwmBRfnykGE0e7Z-36" value="등록한 자격증 정보 조회" style="html=1;verticalAlign=bottom;endArrow=block;curved=0;rounded=0;entryX=0;entryY=0;entryDx=0;entryDy=5;" edge="1" target="kvHhIxwmBRfnykGE0e7Z-35" parent="kvHhIxwmBRfnykGE0e7Z-2">
          <mxGeometry relative="1" as="geometry">
            <mxPoint x="-95" y="176.25" as="sourcePoint" />
          </mxGeometry>
        </mxCell>
        <mxCell id="kvHhIxwmBRfnykGE0e7Z-5" value="Actor" style="shape=umlActor;verticalLabelPosition=bottom;verticalAlign=top;html=1;outlineConnect=0;" vertex="1" parent="1">
          <mxGeometry x="-50" y="-90" width="30" height="60" as="geometry" />
        </mxCell>
        <mxCell id="kvHhIxwmBRfnykGE0e7Z-6" value="" style="endArrow=none;dashed=1;html=1;rounded=0;" edge="1" parent="1">
          <mxGeometry width="50" height="50" relative="1" as="geometry">
            <mxPoint x="-40" y="520" as="sourcePoint" />
            <mxPoint x="-40" as="targetPoint" />
          </mxGeometry>
        </mxCell>
        <mxCell id="kvHhIxwmBRfnykGE0e7Z-7" value="Database" style="shape=umlLifeline;whiteSpace=wrap;html=1;container=0;dropTarget=0;collapsible=0;recursiveResize=0;outlineConnect=0;portConstraint=eastwest;newEdgeStyle={&quot;curved&quot;:0,&quot;rounded&quot;:0};points=[[0,0,0,0,5],[0,1,0,0,-5],[1,0,0,0,5],[1,1,0,0,-5]];perimeter=rectanglePerimeter;targetShapes=umlLifeline;participant=label;" vertex="1" parent="1">
          <mxGeometry x="490" y="-40" width="100" height="560" as="geometry" />
        </mxCell>
        <mxCell id="kvHhIxwmBRfnykGE0e7Z-38" value="" style="html=1;points=[[0,0,0,0,5],[0,1,0,0,-5],[1,0,0,0,5],[1,1,0,0,-5]];perimeter=orthogonalPerimeter;outlineConnect=0;targetShapes=umlLifeline;portConstraint=eastwest;newEdgeStyle={&quot;curved&quot;:0,&quot;rounded&quot;:0};" vertex="1" parent="kvHhIxwmBRfnykGE0e7Z-7">
          <mxGeometry x="45" y="183.13" width="10" height="35" as="geometry" />
        </mxCell>
        <mxCell id="kvHhIxwmBRfnykGE0e7Z-46" value="" style="html=1;points=[[0,0,0,0,5],[0,1,0,0,-5],[1,0,0,0,5],[1,1,0,0,-5]];perimeter=orthogonalPerimeter;outlineConnect=0;targetShapes=umlLifeline;portConstraint=eastwest;newEdgeStyle={&quot;curved&quot;:0,&quot;rounded&quot;:0};" vertex="1" parent="kvHhIxwmBRfnykGE0e7Z-7">
          <mxGeometry x="45" y="340" width="10" height="50" as="geometry" />
        </mxCell>
        <mxCell id="kvHhIxwmBRfnykGE0e7Z-10" value="&#39;나의 자격증&#39; 클릭" style="html=1;verticalAlign=bottom;endArrow=block;curved=0;rounded=0;" edge="1" parent="1">
          <mxGeometry width="80" relative="1" as="geometry">
            <mxPoint x="-40" y="30" as="sourcePoint" />
            <mxPoint x="89.49999999999977" y="30" as="targetPoint" />
          </mxGeometry>
        </mxCell>
        <mxCell id="kvHhIxwmBRfnykGE0e7Z-11" value="자격증 정보 이동" style="html=1;verticalAlign=bottom;endArrow=block;curved=0;rounded=0;" edge="1" parent="1">
          <mxGeometry width="80" relative="1" as="geometry">
            <mxPoint x="90" y="60" as="sourcePoint" />
            <mxPoint x="-40" y="60" as="targetPoint" />
          </mxGeometry>
        </mxCell>
        <mxCell id="kvHhIxwmBRfnykGE0e7Z-28" value=":worker" style="shape=umlLifeline;perimeter=lifelinePerimeter;whiteSpace=wrap;html=1;container=0;dropTarget=0;collapsible=0;recursiveResize=0;outlineConnect=0;portConstraint=eastwest;newEdgeStyle={&quot;edgeStyle&quot;:&quot;elbowEdgeStyle&quot;,&quot;elbow&quot;:&quot;vertical&quot;,&quot;curved&quot;:0,&quot;rounded&quot;:0};" vertex="1" parent="1">
          <mxGeometry x="200" y="-40" width="100" height="560" as="geometry" />
        </mxCell>
        <mxCell id="kvHhIxwmBRfnykGE0e7Z-32" value="" style="html=1;points=[[0,0,0,0,5],[0,1,0,0,-5],[1,0,0,0,5],[1,1,0,0,-5]];perimeter=orthogonalPerimeter;outlineConnect=0;targetShapes=umlLifeline;portConstraint=eastwest;newEdgeStyle={&quot;curved&quot;:0,&quot;rounded&quot;:0};" vertex="1" parent="kvHhIxwmBRfnykGE0e7Z-28">
          <mxGeometry x="45" y="155" width="10" height="95" as="geometry" />
        </mxCell>
        <mxCell id="kvHhIxwmBRfnykGE0e7Z-43" value="" style="html=1;points=[[0,0,0,0,5],[0,1,0,0,-5],[1,0,0,0,5],[1,1,0,0,-5]];perimeter=orthogonalPerimeter;outlineConnect=0;targetShapes=umlLifeline;portConstraint=eastwest;newEdgeStyle={&quot;curved&quot;:0,&quot;rounded&quot;:0};" vertex="1" parent="kvHhIxwmBRfnykGE0e7Z-28">
          <mxGeometry x="45" y="330" width="10" height="80" as="geometry" />
        </mxCell>
        <mxCell id="kvHhIxwmBRfnykGE0e7Z-29" value="등록한 자격증 조회" style="html=1;verticalAlign=bottom;endArrow=block;curved=0;rounded=0;" edge="1" parent="1">
          <mxGeometry width="80" relative="1" as="geometry">
            <mxPoint x="-40" y="100" as="sourcePoint" />
            <mxPoint x="89.49999999999977" y="100" as="targetPoint" />
          </mxGeometry>
        </mxCell>
        <mxCell id="kvHhIxwmBRfnykGE0e7Z-33" value="등록한 자격증 조회" style="html=1;verticalAlign=bottom;endArrow=block;curved=0;rounded=0;entryX=0;entryY=0;entryDx=0;entryDy=5;" edge="1" target="kvHhIxwmBRfnykGE0e7Z-32" parent="1" source="kvHhIxwmBRfnykGE0e7Z-1">
          <mxGeometry relative="1" as="geometry">
            <mxPoint x="140" y="85" as="sourcePoint" />
          </mxGeometry>
        </mxCell>
        <mxCell id="kvHhIxwmBRfnykGE0e7Z-34" value="return" style="html=1;verticalAlign=bottom;endArrow=open;dashed=1;endSize=8;curved=0;rounded=0;exitX=0;exitY=1;exitDx=0;exitDy=-5;" edge="1" source="kvHhIxwmBRfnykGE0e7Z-32" parent="1" target="kvHhIxwmBRfnykGE0e7Z-1">
          <mxGeometry relative="1" as="geometry">
            <mxPoint x="140" y="155" as="targetPoint" />
          </mxGeometry>
        </mxCell>
        <mxCell id="kvHhIxwmBRfnykGE0e7Z-37" value="return" style="html=1;verticalAlign=bottom;endArrow=open;dashed=1;endSize=8;curved=0;rounded=0;exitX=0;exitY=1;exitDx=0;exitDy=-5;" edge="1" source="kvHhIxwmBRfnykGE0e7Z-35" parent="1" target="kvHhIxwmBRfnykGE0e7Z-32">
          <mxGeometry relative="1" as="geometry">
            <mxPoint x="255.43000000000006" y="173.75" as="targetPoint" />
          </mxGeometry>
        </mxCell>
        <mxCell id="kvHhIxwmBRfnykGE0e7Z-39" value="자격증 정보 조회" style="html=1;verticalAlign=bottom;endArrow=block;curved=0;rounded=0;entryX=0;entryY=0;entryDx=0;entryDy=5;" edge="1" target="kvHhIxwmBRfnykGE0e7Z-38" parent="1" source="kvHhIxwmBRfnykGE0e7Z-35">
          <mxGeometry x="0.0037" relative="1" as="geometry">
            <mxPoint x="465" y="120" as="sourcePoint" />
            <mxPoint as="offset" />
          </mxGeometry>
        </mxCell>
        <mxCell id="kvHhIxwmBRfnykGE0e7Z-40" value="return" style="html=1;verticalAlign=bottom;endArrow=open;dashed=1;endSize=8;curved=0;rounded=0;exitX=0;exitY=1;exitDx=0;exitDy=-5;" edge="1" source="kvHhIxwmBRfnykGE0e7Z-38" parent="1" target="kvHhIxwmBRfnykGE0e7Z-35">
          <mxGeometry relative="1" as="geometry">
            <mxPoint x="465" y="190" as="targetPoint" />
          </mxGeometry>
        </mxCell>
        <mxCell id="kvHhIxwmBRfnykGE0e7Z-41" value="show" style="html=1;verticalAlign=bottom;endArrow=open;dashed=1;endSize=8;curved=0;rounded=0;" edge="1" parent="1" source="kvHhIxwmBRfnykGE0e7Z-1">
          <mxGeometry relative="1" as="geometry">
            <mxPoint x="40" y="230" as="sourcePoint" />
            <mxPoint x="-40" y="230" as="targetPoint" />
          </mxGeometry>
        </mxCell>
        <mxCell id="kvHhIxwmBRfnykGE0e7Z-42" value="삭제할 자격증 선택" style="html=1;verticalAlign=bottom;endArrow=block;curved=0;rounded=0;" edge="1" parent="1" target="kvHhIxwmBRfnykGE0e7Z-1">
          <mxGeometry width="80" relative="1" as="geometry">
            <mxPoint x="-40" y="280" as="sourcePoint" />
            <mxPoint x="40" y="280" as="targetPoint" />
          </mxGeometry>
        </mxCell>
        <mxCell id="kvHhIxwmBRfnykGE0e7Z-44" value="자격증 등록 해제" style="html=1;verticalAlign=bottom;endArrow=block;curved=0;rounded=0;entryX=0;entryY=0;entryDx=0;entryDy=5;" edge="1" target="kvHhIxwmBRfnykGE0e7Z-43" parent="1" source="kvHhIxwmBRfnykGE0e7Z-1">
          <mxGeometry relative="1" as="geometry">
            <mxPoint x="175" y="275" as="sourcePoint" />
          </mxGeometry>
        </mxCell>
        <mxCell id="kvHhIxwmBRfnykGE0e7Z-45" value="return" style="html=1;verticalAlign=bottom;endArrow=open;dashed=1;endSize=8;curved=0;rounded=0;exitX=0;exitY=1;exitDx=0;exitDy=-5;" edge="1" source="kvHhIxwmBRfnykGE0e7Z-43" parent="1" target="kvHhIxwmBRfnykGE0e7Z-1">
          <mxGeometry relative="1" as="geometry">
            <mxPoint x="175" y="345" as="targetPoint" />
          </mxGeometry>
        </mxCell>
        <mxCell id="kvHhIxwmBRfnykGE0e7Z-48" value="return" style="html=1;verticalAlign=bottom;endArrow=open;dashed=1;endSize=8;curved=0;rounded=0;exitX=0;exitY=1;exitDx=0;exitDy=-5;" edge="1" source="kvHhIxwmBRfnykGE0e7Z-46" parent="1" target="kvHhIxwmBRfnykGE0e7Z-43">
          <mxGeometry relative="1" as="geometry">
            <mxPoint x="465" y="365" as="targetPoint" />
          </mxGeometry>
        </mxCell>
        <mxCell id="kvHhIxwmBRfnykGE0e7Z-47" value=":worker의 :certification&lt;br&gt;외래키 삭제" style="html=1;verticalAlign=bottom;endArrow=block;curved=0;rounded=0;entryX=0;entryY=0;entryDx=0;entryDy=5;" edge="1" target="kvHhIxwmBRfnykGE0e7Z-46" parent="1" source="kvHhIxwmBRfnykGE0e7Z-43">
          <mxGeometry relative="1" as="geometry">
            <mxPoint x="465" y="295" as="sourcePoint" />
          </mxGeometry>
        </mxCell>
        <mxCell id="kvHhIxwmBRfnykGE0e7Z-49" value="return" style="html=1;verticalAlign=bottom;endArrow=open;dashed=1;endSize=8;curved=0;rounded=0;" edge="1" parent="1">
          <mxGeometry relative="1" as="geometry">
            <mxPoint x="90" y="390" as="sourcePoint" />
            <mxPoint x="-40" y="390" as="targetPoint" />
          </mxGeometry>
        </mxCell>
      </root>
    </mxGraphModel>
  </diagram>
  <diagram id="KDEtOsEHr3fTWCUPq4to" name="1.5 회원탈퇴">
    <mxGraphModel dx="1981" dy="1683" grid="1" gridSize="10" guides="1" tooltips="1" connect="1" arrows="1" fold="1" page="1" pageScale="1" pageWidth="827" pageHeight="1169" math="0" shadow="0">
      <root>
        <mxCell id="0" />
        <mxCell id="1" parent="0" />
        <mxCell id="i2Is88XRDduZtPVVxZi4-1" value="마이페이지" style="shape=umlLifeline;perimeter=lifelinePerimeter;whiteSpace=wrap;html=1;container=0;dropTarget=0;collapsible=0;recursiveResize=0;outlineConnect=0;portConstraint=eastwest;newEdgeStyle={&quot;edgeStyle&quot;:&quot;elbowEdgeStyle&quot;,&quot;elbow&quot;:&quot;vertical&quot;,&quot;curved&quot;:0,&quot;rounded&quot;:0};" vertex="1" parent="1">
          <mxGeometry x="40" y="-40" width="100" height="300" as="geometry" />
        </mxCell>
        <mxCell id="i2Is88XRDduZtPVVxZi4-2" value=":worker" style="shape=umlLifeline;perimeter=lifelinePerimeter;whiteSpace=wrap;html=1;container=0;dropTarget=0;collapsible=0;recursiveResize=0;outlineConnect=0;portConstraint=eastwest;newEdgeStyle={&quot;edgeStyle&quot;:&quot;elbowEdgeStyle&quot;,&quot;elbow&quot;:&quot;vertical&quot;,&quot;curved&quot;:0,&quot;rounded&quot;:0};" vertex="1" parent="1">
          <mxGeometry x="200" y="-40" width="100" height="310" as="geometry" />
        </mxCell>
        <mxCell id="O4AJdFoF_W1t9oXYA8aL-4" value="" style="html=1;points=[[0,0,0,0,5],[0,1,0,0,-5],[1,0,0,0,5],[1,1,0,0,-5]];perimeter=orthogonalPerimeter;outlineConnect=0;targetShapes=umlLifeline;portConstraint=eastwest;newEdgeStyle={&quot;curved&quot;:0,&quot;rounded&quot;:0};" vertex="1" parent="i2Is88XRDduZtPVVxZi4-2">
          <mxGeometry x="45" y="150" width="10" height="80" as="geometry" />
        </mxCell>
        <mxCell id="i2Is88XRDduZtPVVxZi4-4" value="Actor" style="shape=umlActor;verticalLabelPosition=bottom;verticalAlign=top;html=1;outlineConnect=0;" vertex="1" parent="1">
          <mxGeometry x="-50" y="-90" width="30" height="60" as="geometry" />
        </mxCell>
        <mxCell id="i2Is88XRDduZtPVVxZi4-5" value="" style="endArrow=none;dashed=1;html=1;rounded=0;" edge="1" parent="1">
          <mxGeometry width="50" height="50" relative="1" as="geometry">
            <mxPoint x="-40" y="260" as="sourcePoint" />
            <mxPoint x="-40" as="targetPoint" />
          </mxGeometry>
        </mxCell>
        <mxCell id="i2Is88XRDduZtPVVxZi4-6" value="Database" style="shape=umlLifeline;whiteSpace=wrap;html=1;container=0;dropTarget=0;collapsible=0;recursiveResize=0;outlineConnect=0;portConstraint=eastwest;newEdgeStyle={&quot;curved&quot;:0,&quot;rounded&quot;:0};points=[[0,0,0,0,5],[0,1,0,0,-5],[1,0,0,0,5],[1,1,0,0,-5]];perimeter=rectanglePerimeter;targetShapes=umlLifeline;participant=label;" vertex="1" parent="1">
          <mxGeometry x="370" y="-40" width="100" height="300" as="geometry" />
        </mxCell>
        <mxCell id="O4AJdFoF_W1t9oXYA8aL-7" value="" style="html=1;points=[[0,0,0,0,5],[0,1,0,0,-5],[1,0,0,0,5],[1,1,0,0,-5]];perimeter=orthogonalPerimeter;outlineConnect=0;targetShapes=umlLifeline;portConstraint=eastwest;newEdgeStyle={&quot;curved&quot;:0,&quot;rounded&quot;:0};" vertex="1" parent="i2Is88XRDduZtPVVxZi4-6">
          <mxGeometry x="45" y="190" width="10" height="30" as="geometry" />
        </mxCell>
        <mxCell id="O4AJdFoF_W1t9oXYA8aL-1" value="회원탈퇴 버튼 클릭" style="html=1;verticalAlign=bottom;endArrow=block;curved=0;rounded=0;" edge="1" parent="1">
          <mxGeometry width="80" relative="1" as="geometry">
            <mxPoint x="-40" y="30" as="sourcePoint" />
            <mxPoint x="89.49999999999977" y="30" as="targetPoint" />
          </mxGeometry>
        </mxCell>
        <mxCell id="O4AJdFoF_W1t9oXYA8aL-2" value="회원탈퇴 페이지 이동" style="html=1;verticalAlign=bottom;endArrow=block;curved=0;rounded=0;" edge="1" parent="1">
          <mxGeometry width="80" relative="1" as="geometry">
            <mxPoint x="90" y="60" as="sourcePoint" />
            <mxPoint x="-40" y="60" as="targetPoint" />
          </mxGeometry>
        </mxCell>
        <mxCell id="O4AJdFoF_W1t9oXYA8aL-3" value="현 pw 입력" style="html=1;verticalAlign=bottom;endArrow=block;curved=0;rounded=0;" edge="1" parent="1" target="i2Is88XRDduZtPVVxZi4-1">
          <mxGeometry width="80" relative="1" as="geometry">
            <mxPoint x="-40" y="100" as="sourcePoint" />
            <mxPoint x="40" y="100" as="targetPoint" />
          </mxGeometry>
        </mxCell>
        <mxCell id="O4AJdFoF_W1t9oXYA8aL-5" value="pw 검증 및&lt;br&gt;회원탈퇴 요청" style="html=1;verticalAlign=bottom;endArrow=block;curved=0;rounded=0;entryX=0;entryY=0;entryDx=0;entryDy=5;" edge="1" target="O4AJdFoF_W1t9oXYA8aL-4" parent="1" source="i2Is88XRDduZtPVVxZi4-1">
          <mxGeometry relative="1" as="geometry">
            <mxPoint x="175" y="115" as="sourcePoint" />
          </mxGeometry>
        </mxCell>
        <mxCell id="O4AJdFoF_W1t9oXYA8aL-6" value="return" style="html=1;verticalAlign=bottom;endArrow=open;dashed=1;endSize=8;curved=0;rounded=0;exitX=0;exitY=1;exitDx=0;exitDy=-5;" edge="1" source="O4AJdFoF_W1t9oXYA8aL-4" parent="1" target="i2Is88XRDduZtPVVxZi4-1">
          <mxGeometry relative="1" as="geometry">
            <mxPoint x="175" y="185" as="targetPoint" />
          </mxGeometry>
        </mxCell>
        <mxCell id="O4AJdFoF_W1t9oXYA8aL-8" value="회원 정보 삭제" style="html=1;verticalAlign=bottom;endArrow=block;curved=0;rounded=0;entryX=0;entryY=0;entryDx=0;entryDy=5;" edge="1" target="O4AJdFoF_W1t9oXYA8aL-7" parent="1" source="O4AJdFoF_W1t9oXYA8aL-4">
          <mxGeometry relative="1" as="geometry">
            <mxPoint x="345" y="130" as="sourcePoint" />
            <mxPoint as="offset" />
          </mxGeometry>
        </mxCell>
        <mxCell id="O4AJdFoF_W1t9oXYA8aL-9" value="return" style="html=1;verticalAlign=bottom;endArrow=open;dashed=1;endSize=8;curved=0;rounded=0;exitX=0;exitY=1;exitDx=0;exitDy=-5;" edge="1" source="O4AJdFoF_W1t9oXYA8aL-7" parent="1" target="O4AJdFoF_W1t9oXYA8aL-4">
          <mxGeometry relative="1" as="geometry">
            <mxPoint x="345" y="200" as="targetPoint" />
          </mxGeometry>
        </mxCell>
        <mxCell id="O4AJdFoF_W1t9oXYA8aL-11" value="로그인 페이지 이동" style="html=1;verticalAlign=bottom;endArrow=block;curved=0;rounded=0;" edge="1" parent="1">
          <mxGeometry width="80" relative="1" as="geometry">
            <mxPoint x="90" y="220" as="sourcePoint" />
            <mxPoint x="-40" y="220" as="targetPoint" />
          </mxGeometry>
        </mxCell>
        <mxCell id="A7x-dJbBuBiYLy8BExMQ-1" value="loop" style="shape=umlFrame;whiteSpace=wrap;html=1;pointerEvents=0;" vertex="1" parent="1">
          <mxGeometry x="-120" y="70" width="580" height="60" as="geometry" />
        </mxCell>
      </root>
    </mxGraphModel>
  </diagram>
  <diagram id="mRrvKb6NFyJyKPiR_SA0" name="1.6 로그인">
    <mxGraphModel dx="1624" dy="1524" grid="1" gridSize="10" guides="1" tooltips="1" connect="1" arrows="1" fold="1" page="1" pageScale="1" pageWidth="827" pageHeight="1169" math="0" shadow="0">
      <root>
        <mxCell id="0" />
        <mxCell id="1" parent="0" />
        <mxCell id="oUYRTGemRUG0NaZ8tv1x-1" value="로그인 페이지" style="shape=umlLifeline;perimeter=lifelinePerimeter;whiteSpace=wrap;html=1;container=0;dropTarget=0;collapsible=0;recursiveResize=0;outlineConnect=0;portConstraint=eastwest;newEdgeStyle={&quot;edgeStyle&quot;:&quot;elbowEdgeStyle&quot;,&quot;elbow&quot;:&quot;vertical&quot;,&quot;curved&quot;:0,&quot;rounded&quot;:0};" vertex="1" parent="1">
          <mxGeometry x="40" y="-40" width="100" height="300" as="geometry" />
        </mxCell>
        <mxCell id="oUYRTGemRUG0NaZ8tv1x-2" value=":worker" style="shape=umlLifeline;perimeter=lifelinePerimeter;whiteSpace=wrap;html=1;container=0;dropTarget=0;collapsible=0;recursiveResize=0;outlineConnect=0;portConstraint=eastwest;newEdgeStyle={&quot;edgeStyle&quot;:&quot;elbowEdgeStyle&quot;,&quot;elbow&quot;:&quot;vertical&quot;,&quot;curved&quot;:0,&quot;rounded&quot;:0};" vertex="1" parent="1">
          <mxGeometry x="200" y="-40" width="100" height="300" as="geometry" />
        </mxCell>
        <mxCell id="oUYRTGemRUG0NaZ8tv1x-3" value="" style="html=1;points=[];perimeter=orthogonalPerimeter;outlineConnect=0;targetShapes=umlLifeline;portConstraint=eastwest;newEdgeStyle={&quot;edgeStyle&quot;:&quot;elbowEdgeStyle&quot;,&quot;elbow&quot;:&quot;vertical&quot;,&quot;curved&quot;:0,&quot;rounded&quot;:0};" vertex="1" parent="oUYRTGemRUG0NaZ8tv1x-2">
          <mxGeometry x="45" y="80" width="10" height="80" as="geometry" />
        </mxCell>
        <mxCell id="oUYRTGemRUG0NaZ8tv1x-7" value="Actor" style="shape=umlActor;verticalLabelPosition=bottom;verticalAlign=top;html=1;outlineConnect=0;" vertex="1" parent="1">
          <mxGeometry x="-20" y="-90" width="30" height="60" as="geometry" />
        </mxCell>
        <mxCell id="oUYRTGemRUG0NaZ8tv1x-8" value="" style="endArrow=none;dashed=1;html=1;rounded=0;" edge="1" parent="1">
          <mxGeometry width="50" height="50" relative="1" as="geometry">
            <mxPoint x="-10" y="260" as="sourcePoint" />
            <mxPoint x="-10" as="targetPoint" />
          </mxGeometry>
        </mxCell>
        <mxCell id="oUYRTGemRUG0NaZ8tv1x-9" value="Database" style="shape=umlLifeline;perimeter=lifelinePerimeter;whiteSpace=wrap;html=1;container=0;dropTarget=0;collapsible=0;recursiveResize=0;outlineConnect=0;portConstraint=eastwest;newEdgeStyle={&quot;edgeStyle&quot;:&quot;elbowEdgeStyle&quot;,&quot;elbow&quot;:&quot;vertical&quot;,&quot;curved&quot;:0,&quot;rounded&quot;:0};" vertex="1" parent="1">
          <mxGeometry x="370" y="-40" width="100" height="300" as="geometry" />
        </mxCell>
        <mxCell id="oUYRTGemRUG0NaZ8tv1x-10" value="" style="html=1;points=[];perimeter=orthogonalPerimeter;outlineConnect=0;targetShapes=umlLifeline;portConstraint=eastwest;newEdgeStyle={&quot;edgeStyle&quot;:&quot;elbowEdgeStyle&quot;,&quot;elbow&quot;:&quot;vertical&quot;,&quot;curved&quot;:0,&quot;rounded&quot;:0};" vertex="1" parent="oUYRTGemRUG0NaZ8tv1x-9">
          <mxGeometry x="45" y="90" width="10" height="30" as="geometry" />
        </mxCell>
        <mxCell id="oUYRTGemRUG0NaZ8tv1x-12" value="계정, pw 입력" style="html=1;verticalAlign=bottom;endArrow=block;curved=0;rounded=0;" edge="1" parent="1">
          <mxGeometry x="-0.0007" width="80" relative="1" as="geometry">
            <mxPoint x="-10" y="30" as="sourcePoint" />
            <mxPoint x="89.5" y="30" as="targetPoint" />
            <mxPoint as="offset" />
          </mxGeometry>
        </mxCell>
        <mxCell id="oUYRTGemRUG0NaZ8tv1x-13" value="입력한 정보 확인" style="html=1;verticalAlign=bottom;endArrow=block;curved=0;rounded=0;" edge="1" parent="1">
          <mxGeometry width="80" relative="1" as="geometry">
            <mxPoint x="90" y="40" as="sourcePoint" />
            <mxPoint x="245" y="40" as="targetPoint" />
          </mxGeometry>
        </mxCell>
        <mxCell id="oUYRTGemRUG0NaZ8tv1x-14" value="계정 및 pw 일치 여부 조회" style="html=1;verticalAlign=bottom;endArrow=block;curved=0;rounded=0;" edge="1" parent="1">
          <mxGeometry width="80" relative="1" as="geometry">
            <mxPoint x="255" y="50" as="sourcePoint" />
            <mxPoint x="415" y="50" as="targetPoint" />
          </mxGeometry>
        </mxCell>
        <mxCell id="oUYRTGemRUG0NaZ8tv1x-15" value="일치 여부 반환" style="html=1;verticalAlign=bottom;endArrow=open;dashed=1;endSize=8;curved=0;rounded=0;" edge="1" parent="1">
          <mxGeometry relative="1" as="geometry">
            <mxPoint x="415" y="80" as="sourcePoint" />
            <mxPoint x="255" y="80" as="targetPoint" />
          </mxGeometry>
        </mxCell>
        <mxCell id="oUYRTGemRUG0NaZ8tv1x-16" value="로그인 성공시&lt;br&gt;access token 발급" style="html=1;verticalAlign=bottom;endArrow=open;dashed=1;endSize=8;curved=0;rounded=0;" edge="1" parent="1">
          <mxGeometry relative="1" as="geometry">
            <mxPoint x="245" y="109.76" as="sourcePoint" />
            <mxPoint x="90" y="109.76" as="targetPoint" />
          </mxGeometry>
        </mxCell>
        <mxCell id="oUYRTGemRUG0NaZ8tv1x-18" value="return" style="html=1;verticalAlign=bottom;endArrow=open;dashed=1;endSize=8;curved=0;rounded=0;" edge="1" parent="1">
          <mxGeometry relative="1" as="geometry">
            <mxPoint x="90" y="120" as="sourcePoint" />
            <mxPoint x="-10" y="120" as="targetPoint" />
          </mxGeometry>
        </mxCell>
        <mxCell id="9KmqTRuU5bruA7reAkl3-14" value="loop" style="shape=umlFrame;whiteSpace=wrap;html=1;pointerEvents=0;" vertex="1" parent="1">
          <mxGeometry x="-80" y="10" width="560" height="70" as="geometry" />
        </mxCell>
      </root>
    </mxGraphModel>
  </diagram>
</mxfile>
